<svg width="162" height="42" viewBox="0 0 162 42" fill="none" xmlns="http://www.w3.org/2000/svg">
<path d="M37.4124 1.1V41H29.8314L9.9384 16.775V41H0.818403V1.1H8.4564L28.2924 25.325V1.1H37.4124ZM66.1756 41.684C62.0336 41.684 58.2906 40.791 54.9466 39.005C51.6406 37.219 49.0376 34.768 47.1376 31.652C45.2756 28.498 44.3446 24.964 44.3446 21.05C44.3446 17.136 45.2756 13.621 47.1376 10.505C49.0376 7.351 51.6406 4.881 54.9466 3.095C58.2906 1.309 62.0336 0.415999 66.1756 0.415999C70.3176 0.415999 74.0416 1.309 77.3476 3.095C80.6536 4.881 83.2566 7.351 85.1566 10.505C87.0566 13.621 88.0066 17.136 88.0066 21.05C88.0066 24.964 87.0566 28.498 85.1566 31.652C83.2566 34.768 80.6536 37.219 77.3476 39.005C74.0416 40.791 70.3176 41.684 66.1756 41.684ZM66.1756 33.818C68.5316 33.818 70.6596 33.286 72.5596 32.222C74.4596 31.12 75.9416 29.6 77.0056 27.662C78.1076 25.724 78.6586 23.52 78.6586 21.05C78.6586 18.58 78.1076 16.376 77.0056 14.438C75.9416 12.5 74.4596 10.999 72.5596 9.935C70.6596 8.833 68.5316 8.282 66.1756 8.282C63.8196 8.282 61.6916 8.833 59.7916 9.935C57.8916 10.999 56.3906 12.5 55.2886 14.438C54.2246 16.376 53.6926 18.58 53.6926 21.05C53.6926 23.52 54.2246 25.724 55.2886 27.662C56.3906 29.6 57.8916 31.12 59.7916 32.222C61.6916 33.286 63.8196 33.818 66.1756 33.818ZM108.056 41.684C104.902 41.684 101.843 41.266 98.8793 40.43C95.9533 39.556 93.5973 38.435 91.8113 37.067L94.9463 30.113C96.6563 31.367 98.6893 32.374 101.045 33.134C103.401 33.894 105.757 34.274 108.113 34.274C110.735 34.274 112.673 33.894 113.927 33.134C115.181 32.336 115.808 31.291 115.808 29.999C115.808 29.049 115.428 28.27 114.668 27.662C113.946 27.016 112.996 26.503 111.818 26.123C110.678 25.743 109.12 25.325 107.144 24.869C104.104 24.147 101.615 23.425 99.6773 22.703C97.7393 21.981 96.0673 20.822 94.6613 19.226C93.2933 17.63 92.6093 15.502 92.6093 12.842C92.6093 10.524 93.2363 8.434 94.4903 6.572C95.7443 4.672 97.6253 3.171 100.133 2.069C102.679 0.966999 105.776 0.415999 109.424 0.415999C111.97 0.415999 114.459 0.719999 116.891 1.328C119.323 1.936 121.451 2.81 123.275 3.95L120.425 10.961C116.739 8.871 113.053 7.826 109.367 7.826C106.783 7.826 104.864 8.244 103.61 9.08C102.394 9.916 101.786 11.018 101.786 12.386C101.786 13.754 102.489 14.78 103.895 15.464C105.339 16.11 107.524 16.756 110.45 17.402C113.49 18.124 115.979 18.846 117.917 19.568C119.855 20.29 121.508 21.43 122.876 22.988C124.282 24.546 124.985 26.655 124.985 29.315C124.985 31.595 124.339 33.685 123.047 35.585C121.793 37.447 119.893 38.929 117.347 40.031C114.801 41.133 111.704 41.684 108.056 41.684ZM144.405 41.684C141.251 41.684 138.192 41.266 135.228 40.43C132.302 39.556 129.946 38.435 128.16 37.067L131.295 30.113C133.005 31.367 135.038 32.374 137.394 33.134C139.75 33.894 142.106 34.274 144.462 34.274C147.084 34.274 149.022 33.894 150.276 33.134C151.53 32.336 152.157 31.291 152.157 29.999C152.157 29.049 151.777 28.27 151.017 27.662C150.295 27.016 149.345 26.503 148.167 26.123C147.027 25.743 145.469 25.325 143.493 24.869C140.453 24.147 137.964 23.425 136.026 22.703C134.088 21.981 132.416 20.822 131.01 19.226C129.642 17.63 128.958 15.502 128.958 12.842C128.958 10.524 129.585 8.434 130.839 6.572C132.093 4.672 133.974 3.171 136.482 2.069C139.028 0.966999 142.125 0.415999 145.773 0.415999C148.319 0.415999 150.808 0.719999 153.24 1.328C155.672 1.936 157.8 2.81 159.624 3.95L156.774 10.961C153.088 8.871 149.402 7.826 145.716 7.826C143.132 7.826 141.213 8.244 139.959 9.08C138.743 9.916 138.135 11.018 138.135 12.386C138.135 13.754 138.838 14.78 140.244 15.464C141.688 16.11 143.873 16.756 146.799 17.402C149.839 18.124 152.328 18.846 154.266 19.568C156.204 20.29 157.857 21.43 159.225 22.988C160.631 24.546 161.334 26.655 161.334 29.315C161.334 31.595 160.688 33.685 159.396 35.585C158.142 37.447 156.242 38.929 153.696 40.031C151.15 41.133 148.053 41.684 144.405 41.684Z" fill="#103249"/>
</svg>
